# xmcd
#
# Track frame offsets:
#	150
#	16653
#	33689
#	46631
#	60248
#	77178
#	98832
#	112706
#	125361
#	143498
#	160094
#	176928
#	190681
#	206297
#	224328
#
# Disc length: 3206 seconds
#
# Revision: 1
# Processed by: cddbd v1.5.2PL0 Copyright (c) Steve Scherf et al.
# Submitted via: audiograbber 1.83.01
#
DISCID=b70c840f
DTITLE=Local Lads and Friends - One Step At a Time
DYEAR=2010
DGENRE=Country
TTITLE0=One Step At a Time
TTITLE1=Discover Our Dream
TTITLE2=High Heel Shoes
TTITLE3=Lollipop Lips
TTITLE4=Mud and Stars
TTITLE5=I Need You Back
TTITLE6=I've Had Enough
TTITLE7=Lonely
TTITLE8=Scrambled Thoughts
TTITLE9=Wyh Not I
TTITLE10=Sleep Warm
TTITLE11=Between I and You
TTITLE12=You Broke The Ice
TTITLE13=The First Dance
TTITLE14=Runaway Heart
EXTD=
EXTT0=
EXTT1=
EXTT2=
EXTT3=
EXTT4=
EXTT5=
EXTT6=
EXTT7=
EXTT8=
EXTT9=
EXTT10=
EXTT11=
EXTT12=
EXTT13=
EXTT14=
PLAYORDER=
